<?xml version="1.0" encoding="utf-8"?>
<!-- Generator: Adobe Illustrator 17.1.0, SVG Export Plug-In . SVG Version: 6.00 Build 0)  -->
<!DOCTYPE svg PUBLIC "-//W3C//DTD SVG 1.1//EN" "http://www.w3.org/Graphics/SVG/1.1/DTD/svg11.dtd">
<svg version="1.1" id="Layer_1" opacity="0.2" xmlns="http://www.w3.org/2000/svg" xmlns:xlink="http://www.w3.org/1999/xlink"
	 x="0px" y="0px" viewBox="0 0 200 340" enable-background="new 0 0 200 340" xml:space="preserve">
	<g opacity="0.2">
<path id="Smooth" d="M1.7,46c-1-0.5-2.5-0.5-3.5,0l-31.2,18c-1,0.6-1.7,1.9-1.7,3v36c0,1.1,0.8,2.4,1.7,3l31.2,18
	c1,0.6,2.5,0.6,3.5,0l31.2-18c1-0.6,1.7-1.9,1.7-3V67c0-1.1-0.8-2.4-1.7-3L1.7,46z M3,63.8c-0.5-1-0.1-1.5,1-1.3l23.5,5.2
	c1.1,0.2,1.7,1.3,1.3,2.3l-7.3,22.9c-0.3,1-1.1,1.1-1.6,0.2L3,63.8z M18.4,94.5c0.5,1,0.1,1.7-1,1.7h-34.8c-1.1,0-1.5-0.8-1-1.7
	L-1,64.3c0.5-1,1.5-1,2,0L18.4,94.5z M-19.9,93c-0.5,1-1.3,0.9-1.6-0.2l-7.3-22.9c-0.3-1,0.3-2.1,1.3-2.3l23.5-5.2
	c1.1-0.2,1.5,0.4,1,1.3L-19.9,93z M-23,94.8c0.3,1-0.2,2.4-1.1,2.9l-4.8,2.8c-1,0.5-1.7,0.1-1.7-1V72.6c0-1.1,0.3-1.1,0.6-0.1
	L-23,94.8z M-23.1,99.5c1-0.5,2.3-0.3,3.1,0.5l15.8,17.3c0.7,0.8,0.6,1-0.4,0.5l-23.3-13.5c-1-0.6-1-1.5,0-2L-23.1,99.5z
	 M-17.5,99.7c-0.7-0.8-0.4-1.5,0.7-1.5h33.8c1.1,0,1.4,0.7,0.7,1.5L1.3,117.4c-0.7,0.8-2,0.8-2.7,0L-17.5,99.7z M20,100
	c0.7-0.8,2.1-1,3.1-0.5l4.8,2.8c1,0.5,1,1.4,0,2L4.6,117.7c-1,0.6-1.1,0.3-0.4-0.5L20,100z M24.1,97.8c-1-0.6-1.5-1.9-1.1-2.9
	l7.1-22.3c0.3-1,0.6-1,0.6,0.1v26.9c0,1.1-0.8,1.6-1.7,1L24.1,97.8z M26.1,64.6c1,0.5,0.9,0.8-0.2,0.6L3,60.2c-1.1-0.2-2-1.3-2-2.4
	l0-5.6c0-1.1,0.8-1.5,1.7-1L26.1,64.6z M-2.7,51.2c1-0.5,1.7-0.1,1.7,1l0,5.6c0,1.1-0.9,2.2-2,2.4l-22.9,5c-1.1,0.2-1.2,0-0.2-0.6
	L-2.7,51.2z"/>
<path id="Smooth_2_" d="M101.7,216c-1-0.6-2.5-0.6-3.5,0l-31.2,18c-1,0.5-1.7,1.9-1.7,3v36c0,1.1,0.8,2.5,1.7,3l31.2,18
	c1,0.6,2.5,0.6,3.5,0l31.2-18c1-0.5,1.7-1.9,1.7-3v-36c0-1.1-0.8-2.5-1.7-3L101.7,216z M103,233.8c-0.5-1-0.1-1.5,1-1.3l23.5,5.2
	c1.1,0.2,1.7,1.3,1.3,2.3l-7.3,22.9c-0.3,1-1.1,1.1-1.6,0.2L103,233.8z M118.4,264.5c0.5,1,0.1,1.7-1,1.7H82.6c-1.1,0-1.6-0.8-1-1.7
	L99,234.3c0.6-1,1.5-1,2,0L118.4,264.5z M80.1,263c-0.5,1-1.3,0.9-1.6-0.2l-7.3-22.9c-0.3-1,0.3-2.1,1.3-2.3l23.5-5.2
	c1.1-0.2,1.5,0.4,1,1.3L80.1,263z M77,264.8c0.3,1-0.2,2.4-1.1,2.9l-4.8,2.8c-1,0.5-1.7,0.1-1.7-1v-26.9c0-1.1,0.3-1.1,0.6-0.1
	L77,264.8z M76.9,269.5c1-0.6,2.3-0.3,3.1,0.5l15.8,17.3c0.7,0.8,0.6,1-0.4,0.5l-23.3-13.5c-1-0.5-1-1.4,0-2L76.9,269.5z
	 M82.5,269.7c-0.7-0.8-0.4-1.5,0.7-1.5h33.8c1.1,0,1.4,0.7,0.7,1.5l-16.2,17.7c-0.7,0.8-2,0.8-2.7,0L82.5,269.7z M120,270
	c0.7-0.8,2.1-1,3.1-0.5l4.8,2.8c1,0.6,1,1.5,0,2l-23.3,13.5c-1,0.6-1.1,0.3-0.4-0.5L120,270z M124.1,267.8c-1-0.5-1.5-1.9-1.1-2.9
	l7.1-22.3c0.3-1,0.6-1,0.6,0.1v26.9c0,1.1-0.8,1.5-1.7,1L124.1,267.8z M126.1,234.6c1,0.6,0.9,0.8-0.2,0.6l-22.9-5
	c-1.1-0.2-2-1.3-2-2.4l0-5.6c0-1.1,0.8-1.6,1.7-1L126.1,234.6z M97.3,221.2c1-0.6,1.7-0.1,1.7,1l0,5.6c0,1.1-0.9,2.2-2,2.4l-22.9,5
	c-1.1,0.2-1.2,0-0.2-0.6L97.3,221.2z"/>
<path id="Smooth_1_" d="M201.7,46c-1-0.5-2.5-0.5-3.5,0l-31.2,18c-1,0.6-1.7,1.9-1.7,3v36c0,1.1,0.8,2.4,1.7,3l31.2,18
	c1,0.6,2.5,0.6,3.5,0l31.2-18c1-0.6,1.7-1.9,1.7-3V67c0-1.1-0.8-2.4-1.7-3L201.7,46z M203,63.8c-0.6-1-0.1-1.5,1-1.3l23.5,5.2
	c1.1,0.2,1.7,1.3,1.3,2.3l-7.3,22.9c-0.3,1-1.1,1.1-1.6,0.2L203,63.8z M218.4,94.5c0.6,1,0.1,1.7-1,1.7h-34.9c-1.1,0-1.5-0.8-1-1.7
	L199,64.3c0.6-1,1.4-1,2,0L218.4,94.5z M180.1,93c-0.6,1-1.3,0.9-1.6-0.2l-7.3-22.9c-0.3-1,0.3-2.1,1.3-2.3l23.5-5.2
	c1.1-0.2,1.5,0.4,1,1.3L180.1,93z M177,94.8c0.3,1-0.2,2.4-1.1,2.9l-4.8,2.8c-1,0.5-1.7,0.1-1.7-1V72.6c0-1.1,0.3-1.1,0.6-0.1
	L177,94.8z M176.9,99.5c1-0.5,2.3-0.3,3.1,0.5l15.8,17.3c0.7,0.8,0.6,1-0.4,0.5l-23.3-13.5c-1-0.6-1-1.5,0-2L176.9,99.5z
	 M182.5,99.7c-0.7-0.8-0.4-1.5,0.7-1.5h33.8c1.1,0,1.4,0.7,0.7,1.5l-16.2,17.7c-0.7,0.8-2,0.8-2.7,0L182.5,99.7z M220,100
	c0.7-0.8,2.1-1,3.1-0.5l4.8,2.8c1,0.5,1,1.4,0,2l-23.3,13.5c-1,0.6-1.1,0.3-0.4-0.5L220,100z M224.1,97.8c-1-0.6-1.5-1.9-1.1-2.9
	l7.1-22.3c0.3-1,0.6-1,0.6,0.1v26.9c0,1.1-0.8,1.6-1.7,1L224.1,97.8z M226.1,64.6c1,0.5,0.9,0.8-0.2,0.6l-22.9-5
	c-1.1-0.2-2-1.3-2-2.4v-5.6c0-1.1,0.8-1.5,1.7-1L226.1,64.6z M197.3,51.2c1-0.5,1.7-0.1,1.7,1l0,5.6c0,1.1-0.9,2.2-2,2.4l-22.9,5
	c-1.1,0.2-1.2,0-0.2-0.6L197.3,51.2z"/>
<g>
	<path fill="none" stroke="#000000" stroke-width="3" stroke-linecap="round" stroke-linejoin="round" stroke-miterlimit="10" d="
		M134.3,32.2l-6-6.4c0,0-3.1-5.4,1-9.7c4.6-4.3,7.3-5.7,7.3-5.7"/>
	<path fill="none" stroke="#000000" stroke-width="3" stroke-linecap="round" stroke-linejoin="round" stroke-miterlimit="10" d="
		M136.7,21.1v-38.3c0,0,0.4-5.3,5.1-5.3c4.8,0,4.9,5.3,4.9,5.3V5.6c0,0,0-4,5.2-4c4.8,0,4.8,4.7,4.8,4.7s0-3.8,5.4-3.8
		c4.7,0,4.6,5,4.6,5s0.3-3.7,5.4-3.7c4.6,0,4.6,5.5,4.6,5.5v16.7c0,7.5-5.9,10.8-5.9,10.8"/>
	<path fill="none" stroke="#000000" stroke-width="3" stroke-linecap="round" stroke-linejoin="round" stroke-miterlimit="10" d="
		M131.8-8.6c-2.3-2.4-3.7-5.7-3.7-9.3c0-7.5,6.1-13.7,13.7-13.7c7.5,0,13.7,6.1,13.7,13.7c0,3.8-1.5,7.2-4,9.6"/>
	<path fill="none" stroke="#000000" stroke-width="3" stroke-linecap="round" stroke-linejoin="round" stroke-miterlimit="10" d="
		M131.8-2.2c-5.2-3.3-8.7-8.5-8.7-15.8c0-10.3,8.4-18.7,18.7-18.7c10.3,0,18.7,8.4,18.7,18.7c0,5.9-2.7,11.2-7,14.6"/>
</g>
<g>
	<path fill="none" stroke="#000000" stroke-width="3" stroke-linecap="round" stroke-linejoin="round" stroke-miterlimit="10" d="
		M34.3,202.2l-6-6.4c0,0-3.1-5.4,1-9.7c4.6-4.3,7.3-5.7,7.3-5.7"/>
	<path fill="none" stroke="#000000" stroke-width="3" stroke-linecap="round" stroke-linejoin="round" stroke-miterlimit="10" d="
		M36.7,191.1v-38.3c0,0,0.4-5.3,5.1-5.3s4.9,5.3,4.9,5.3v22.7c0,0,0-4,5.2-4c4.8,0,4.8,4.7,4.8,4.7s0-3.8,5.4-3.8c4.7,0,4.6,5,4.6,5
		s0.3-3.7,5.4-3.7c4.6,0,4.6,5.5,4.6,5.5v16.7c0,7.5-5.9,10.8-5.9,10.8"/>
	<path fill="none" stroke="#000000" stroke-width="3" stroke-linecap="round" stroke-linejoin="round" stroke-miterlimit="10" d="
		M31.8,161.4c-2.3-2.4-3.7-5.7-3.7-9.3c0-7.5,6.1-13.7,13.7-13.7s13.7,6.1,13.7,13.7c0,3.8-1.5,7.2-4,9.6"/>
	<path fill="none" stroke="#000000" stroke-width="3" stroke-linecap="round" stroke-linejoin="round" stroke-miterlimit="10" d="
		M31.8,167.8c-5.2-3.3-8.7-8.5-8.7-15.8c0-10.3,8.4-18.7,18.7-18.7s18.7,8.4,18.7,18.7c0,5.9-2.7,11.2-7,14.6"/>
</g>
<g transform="translate(-100,0)">
	
		<line fill="none" stroke="#000000" stroke-width="6" stroke-linecap="round" stroke-miterlimit="10" x1="150" y1="0" x2="150" y2="0"/>
	
		<ellipse transform="matrix(0.566 -0.8244 0.8244 0.566 65.103 123.6658)" fill="none" stroke="#000000" stroke-width="3" stroke-linecap="round" stroke-miterlimit="10" cx="150" cy="0" rx="10.1" ry="38"/>
	
		<ellipse transform="matrix(0.9676 -0.2526 0.2526 0.9676 4.8627 37.8891)" fill="none" stroke="#000000" stroke-width="3" stroke-linecap="round" stroke-miterlimit="10" cx="150" cy="0" rx="38" ry="26.6"/>
	
		<ellipse transform="matrix(4.850113e-02 -0.9988 0.9988 4.850113e-02 142.7255 149.8242)" fill="none" stroke="#000000" stroke-width="3" stroke-linecap="round" stroke-miterlimit="10" cx="150" cy="0" rx="38" ry="25"/>
</g>
<g>
	<path fill="none" stroke="#000000" stroke-width="3" stroke-linecap="round" stroke-linejoin="round" stroke-miterlimit="10" d="
		M134.3,372.2l-6-6.4c0,0-3.1-5.4,1-9.7c4.6-4.3,7.3-5.7,7.3-5.7"/>
	<path fill="none" stroke="#000000" stroke-width="3" stroke-linecap="round" stroke-linejoin="round" stroke-miterlimit="10" d="
		M136.7,361.1v-38.3c0,0,0.4-5.3,5.1-5.3c4.8,0,4.9,5.3,4.9,5.3v22.7c0,0,0-4,5.2-4c4.8,0,4.8,4.7,4.8,4.7s0-3.8,5.4-3.8
		c4.7,0,4.6,5,4.6,5s0.3-3.7,5.4-3.7c4.6,0,4.6,5.5,4.6,5.5v16.7c0,7.5-5.9,10.8-5.9,10.8"/>
	<path fill="none" stroke="#000000" stroke-width="3" stroke-linecap="round" stroke-linejoin="round" stroke-miterlimit="10" d="
		M131.8,331.4c-2.3-2.4-3.7-5.7-3.7-9.3c0-7.5,6.1-13.7,13.7-13.7c7.5,0,13.7,6.1,13.7,13.7c0,3.8-1.5,7.2-4,9.6"/>
	<path fill="none" stroke="#000000" stroke-width="3" stroke-linecap="round" stroke-linejoin="round" stroke-miterlimit="10" d="
		M131.8,337.8c-5.2-3.3-8.7-8.5-8.7-15.8c0-10.3,8.4-18.7,18.7-18.7c10.3,0,18.7,8.4,18.7,18.7c0,5.9-2.7,11.2-7,14.6"/>
</g>
<g transform="translate(-100,0)">
	
		<line fill="none" stroke="#000000" stroke-width="6" stroke-linecap="round" stroke-miterlimit="10" x1="150" y1="340" x2="150" y2="340"/>
	
		<ellipse transform="matrix(0.566 -0.8244 0.8244 0.566 -215.1942 271.225)" fill="none" stroke="#000000" stroke-width="3" stroke-linecap="round" stroke-miterlimit="10" cx="150" cy="340" rx="10.1" ry="38"/>
	
		<ellipse transform="matrix(0.9676 -0.2526 0.2526 0.9676 -81.0189 48.9144)" fill="none" stroke="#000000" stroke-width="3" stroke-linecap="round" stroke-miterlimit="10" cx="150" cy="340" rx="38" ry="26.6"/>
	
		<ellipse transform="matrix(4.850113e-02 -0.9988 0.9988 4.850113e-02 -196.8744 473.3338)" fill="none" stroke="#000000" stroke-width="3" stroke-linecap="round" stroke-miterlimit="10" cx="150" cy="340" rx="38" ry="25"/>
</g>
<g transform="translate(-100,0)">
	
		<line fill="none" stroke="#000000" stroke-width="6" stroke-linecap="round" stroke-miterlimit="10" x1="250" y1="170" x2="250" y2="170"/>
	
		<ellipse transform="matrix(0.566 -0.8244 0.8244 0.566 -31.6459 279.8858)" fill="none" stroke="#000000" stroke-width="3" stroke-linecap="round" stroke-miterlimit="10" cx="250" cy="170" rx="10.1" ry="38"/>
	
		<ellipse transform="matrix(0.9676 -0.2526 0.2526 0.9676 -34.8354 68.661)" fill="none" stroke="#000000" stroke-width="3" stroke-linecap="round" stroke-miterlimit="10" cx="250" cy="170" rx="38" ry="26.6"/>
	
		<ellipse transform="matrix(4.850113e-02 -0.9988 0.9988 4.850113e-02 68.0754 411.4613)" fill="none" stroke="#000000" stroke-width="3" stroke-linecap="round" stroke-miterlimit="10" cx="250" cy="170" rx="38" ry="25"/>
</g>
<g>
	<circle fill="none" stroke="#000000" stroke-width="6" stroke-linecap="round" stroke-miterlimit="10" cx="100" cy="85" r="25.3"/>
	<circle fill="none" stroke="#000000" stroke-width="3" stroke-linecap="round" stroke-miterlimit="10" cx="100" cy="85" r="35"/>
</g>
<g>
	<circle fill="none" stroke="#000000" stroke-width="6" stroke-linecap="round" stroke-miterlimit="10" cx="0" cy="255" r="25.3"/>
	<circle fill="none" stroke="#000000" stroke-width="3" stroke-linecap="round" stroke-miterlimit="10" cx="0" cy="255" r="35"/>
</g>
<g>
	
		<circle fill="none" stroke="#000000" stroke-width="6" stroke-linecap="round" stroke-miterlimit="10" cx="200" cy="255" r="25.3"/>
	<circle fill="none" stroke="#000000" stroke-width="3" stroke-linecap="round" stroke-miterlimit="10" cx="200" cy="255" r="35"/>
</g>
</g>
</svg>
