<?xml version="1.0" encoding="utf-8"?>
<!-- Generator: Adobe Illustrator 15.0.2, SVG Export Plug-In . SVG Version: 6.00 Build 0)  -->
<!DOCTYPE svg PUBLIC "-//W3C//DTD SVG 1.1//EN" "http://www.w3.org/Graphics/SVG/1.1/DTD/svg11.dtd">
<svg version="1.1" id="Calque_1" xmlns="http://www.w3.org/2000/svg" xmlns:xlink="http://www.w3.org/1999/xlink" x="0px" y="0px"
	 width="330px" height="140px" viewBox="0 0 330 140" enable-background="new 0 0 330 140" xml:space="preserve">
<g id="Elements">
	<g>
		<path fill="#FFFFFF" stroke="#000000" stroke-miterlimit="10" d="M248.93359,118.07617c0,2.01758-1.63672,3.6543-3.64941,3.6543
			h-17.51367c-2.01758,0-3.6543-1.63672-3.6543-3.6543V77.48828c0-2.01758,1.63672-3.65234,3.6543-3.65234h17.51367
			c2.0127,0,3.64941,1.63477,3.64941,3.65234V118.07617z"/>
		<path fill="#FFFFFF" stroke="#000000" stroke-miterlimit="10" d="M247.07812,112.5957c0,0.33594-0.27441,0.60938-0.61035,0.60938
			h-19.88672c-0.33496,0-0.60938-0.27344-0.60938-0.60938V82.46094c0-0.33594,0.27441-0.61035,0.60938-0.61035h19.88672
			c0.33594,0,0.61035,0.27441,0.61035,0.61035V112.5957z"/>
		<circle fill="#FFFFFF" stroke="#000000" stroke-miterlimit="10" cx="236.52441" cy="117.36621" r="1.99512"/>
		
			<line fill="#FFFFFF" stroke="#000000" stroke-linecap="round" stroke-miterlimit="10" x1="234.7002" y1="77.89453" x2="238.35449" y2="77.89453"/>
		
			<line fill="none" stroke="#000000" stroke-linecap="round" stroke-linejoin="round" stroke-miterlimit="10" x1="236.52637" y1="97.52832" x2="236.52637" y2="97.52832"/>
		
			<ellipse transform="matrix(0.56576 -0.82457 0.82457 0.56576 22.29161 237.38359)" fill="none" stroke="#000000" stroke-miterlimit="10" cx="236.52637" cy="97.52734" rx="1.82623" ry="6.88023"/>
		
			<ellipse transform="matrix(0.96758 -0.25258 0.25258 0.96758 -16.96457 62.90254)" fill="none" stroke="#000000" stroke-miterlimit="10" cx="236.52539" cy="97.52881" rx="6.8803" ry="4.80668"/>
		
			<ellipse transform="matrix(0.0484 -0.99883 0.99883 0.0484 127.66291 329.05518)" fill="none" stroke="#000000" stroke-miterlimit="10" cx="236.52539" cy="97.52783" rx="6.87965" ry="4.52387"/>
	</g>
	<g>
		<g>
			
				<line fill="none" stroke="#000000" stroke-linecap="round" stroke-miterlimit="10" x1="211.85254" y1="38.62207" x2="213" y2="40.26025"/>
			
				<line fill="none" stroke="#000000" stroke-linecap="round" stroke-miterlimit="10" stroke-dasharray="4.10492,2.05246" x1="214.17773" y1="41.94092" x2="234.78809" y2="71.35742"/>
			
				<line fill="none" stroke="#000000" stroke-linecap="round" stroke-miterlimit="10" x1="235.37695" y1="72.19824" x2="236.52441" y2="73.83594"/>
		</g>
	</g>
	<g>
		<path fill="#FFFFFF" stroke="#000000" stroke-miterlimit="10" d="M229.68555,123.07617c0,2.01758-1.63672,3.6543-3.64941,3.6543
			h-17.51367c-2.01758,0-3.6543-1.63672-3.6543-3.6543V82.48828c0-2.01758,1.63672-3.65234,3.6543-3.65234h17.51367
			c2.0127,0,3.64941,1.63477,3.64941,3.65234V123.07617z"/>
		<path fill="#FFFFFF" stroke="#000000" stroke-miterlimit="10" d="M227.83008,117.5957c0,0.33594-0.27441,0.60938-0.61035,0.60938
			h-19.88672c-0.33496,0-0.60938-0.27344-0.60938-0.60938V87.46094c0-0.33594,0.27441-0.61035,0.60938-0.61035h19.88672
			c0.33594,0,0.61035,0.27441,0.61035,0.61035V117.5957z"/>
		<circle fill="#FFFFFF" stroke="#000000" stroke-miterlimit="10" cx="217.27637" cy="122.36621" r="1.99512"/>
		
			<line fill="#FFFFFF" stroke="#000000" stroke-linecap="round" stroke-miterlimit="10" x1="215.45215" y1="82.89453" x2="219.10645" y2="82.89453"/>
		
			<line fill="none" stroke="#000000" stroke-linecap="round" stroke-linejoin="round" stroke-miterlimit="10" x1="217.27832" y1="102.52832" x2="217.27832" y2="102.52832"/>
		
			<ellipse transform="matrix(0.56576 -0.82457 0.82457 0.56576 9.81042 223.68341)" fill="none" stroke="#000000" stroke-miterlimit="10" cx="217.27832" cy="102.52734" rx="1.82623" ry="6.88023"/>
		
			<ellipse transform="matrix(0.96758 -0.25258 0.25258 0.96758 -18.8515 58.20308)" fill="none" stroke="#000000" stroke-miterlimit="10" cx="217.27734" cy="102.52881" rx="6.8803" ry="4.80668"/>
		
			<ellipse transform="matrix(0.0484 -0.99883 0.99883 0.0484 104.35242 314.58765)" fill="none" stroke="#000000" stroke-miterlimit="10" cx="217.27734" cy="102.52783" rx="6.87965" ry="4.52387"/>
	</g>
	<g>
		<g>
			
				<line fill="none" stroke="#000000" stroke-linecap="round" stroke-miterlimit="10" x1="198.42969" y1="51.93311" x2="199.57715" y2="53.57129"/>
			
				<line fill="none" stroke="#000000" stroke-linecap="round" stroke-miterlimit="10" stroke-dasharray="3.60625,1.80313" x1="200.6123" y1="55.04785" x2="215.61426" y2="76.46094"/>
			
				<line fill="none" stroke="#000000" stroke-linecap="round" stroke-miterlimit="10" x1="216.13184" y1="77.19922" x2="217.2793" y2="78.83691"/>
		</g>
	</g>
	<g>
		<path fill="#FFFFFF" stroke="#000000" stroke-miterlimit="10" d="M159.04297,75.18848H84.99805
			c-1.06689,0-1.93164,0.86523-1.93164,1.93164v46.90039c0,1.06641,0.86475,1.93359,1.93164,1.93359h74.04492
			c1.06836,0,1.93555-0.86719,1.93555-1.93359V77.12012C160.97852,76.05371,160.11133,75.18848,159.04297,75.18848z"/>
		<g>
			<path fill="none" stroke="#000000" stroke-width="2" stroke-linecap="round" stroke-linejoin="round" stroke-miterlimit="10" d="
				M117.24316,118.02832l4.7793,2.75977l15.2041-8.77734V94.4541l-15.2041-8.77734l-15.20312,8.77734v17.55664l3.63184,2.0957
				c5.59375,3.29102,5.98828-0.79102,5.98828-1.875V96.39941"/>
			<path fill="none" stroke="#000000" stroke-width="2" stroke-linecap="round" stroke-linejoin="round" stroke-miterlimit="10" d="
				M131.27246,100.64941c0-3.5-3.91895-3.91699-5.33301-3.91699s-5.08398,0.25-5.08398,3.5c0,4.58301,10.75,0.41699,10.75,6.5
				c0,2.74902-4,3.00098-5.75,3.00098s-5.58301-0.50098-5.58301-4.33398"/>
		</g>
		<line fill="#FFFFFF" stroke="#000000" stroke-miterlimit="10" x1="83.06641" y1="79.89746" x2="160.97852" y2="79.89746"/>
		<circle fill="#FFFFFF" stroke="#000000" stroke-miterlimit="10" cx="92.42432" cy="77.61133" r="0.96875"/>
		<circle fill="#FFFFFF" stroke="#000000" stroke-miterlimit="10" cx="89.52051" cy="77.61133" r="0.96875"/>
		<circle fill="#FFFFFF" stroke="#000000" stroke-miterlimit="10" cx="86.61572" cy="77.61133" r="0.96875"/>
	</g>
	<g>
		<g>
			
				<line fill="none" stroke="#000000" stroke-linecap="round" stroke-miterlimit="10" x1="160.97852" y1="51.93311" x2="159.83105" y2="53.57129"/>
			
				<line fill="none" stroke="#000000" stroke-linecap="round" stroke-miterlimit="10" stroke-dasharray="3.75307,1.87653" x1="158.75391" y1="55.10791" x2="146.37109" y2="72.78223"/>
			
				<line fill="none" stroke="#000000" stroke-linecap="round" stroke-miterlimit="10" x1="145.83301" y1="73.55078" x2="144.68555" y2="75.18848"/>
		</g>
	</g>
	<g id="Server_1_">
		<g>
			<path fill="#FFFFFF" d="M203.2666,15.68066c-0.77734-0.77783-2.31445-1.41406-3.41406-1.41406h-54.83398c-1.09961,0-2,0.8999-2,2
				v23.6665c0,1.1001,0.63672,2.63623,1.41406,3.41406l7.17188,7.17188c0.77832,0.77783,2.31445,1.41406,3.41406,1.41406h54.83398
				c1.09961,0,2-0.8999,2-2V26.2666c0-1.1001-0.63672-2.63623-1.41406-3.41406L203.2666,15.68066z"/>
			<path fill="none" stroke="#000000" stroke-miterlimit="10" d="M203.2666,15.68066
				c-0.77734-0.77783-2.31445-1.41406-3.41406-1.41406h-54.83398c-1.09961,0-2,0.8999-2,2v23.6665
				c0,1.1001,0.63672,2.63623,1.41406,3.41406l7.17188,7.17188c0.77832,0.77783,2.31445,1.41406,3.41406,1.41406h54.83398
				c1.09961,0,2-0.8999,2-2V26.2666c0-1.1001-0.63672-2.63623-1.41406-3.41406L203.2666,15.68066z"/>
		</g>
		<path fill="none" stroke="#000000" stroke-linecap="round" stroke-miterlimit="10" d="M153.01855,49.59961V25.2666
			c0-0.5498,0.4502-1,1-1h55.45898"/>
		
			<line fill="none" stroke="#000000" stroke-linecap="round" stroke-miterlimit="10" x1="151.35254" y1="22.6001" x2="144.68555" y2="15.93311"/>
		<path id="Smooth" d="M204.10645,26.73438c-0.15625-0.08936-0.41016-0.08936-0.56543,0l-5.08789,2.93799
			c-0.15625,0.08984-0.2832,0.31006-0.2832,0.48926v5.87598c0,0.17969,0.12695,0.3999,0.2832,0.48926l5.08789,2.93799
			c0.15527,0.08984,0.40918,0.08984,0.56543,0l5.08789-2.93799c0.15625-0.08936,0.2832-0.30957,0.2832-0.48926v-5.87598
			c0-0.1792-0.12695-0.39941-0.2832-0.48926L204.10645,26.73438z M204.31348,29.63574
			c-0.08984-0.15527-0.01953-0.25098,0.15527-0.21289l3.82812,0.84033c0.1748,0.03857,0.27441,0.20996,0.21973,0.38135
			l-1.18555,3.73535c-0.05469,0.1709-0.17285,0.18359-0.2627,0.02783L204.31348,29.63574z M206.83008,34.64648
			c0.08984,0.15576,0.01562,0.28271-0.16406,0.28271h-5.68457c-0.17969,0-0.25293-0.12695-0.16309-0.28271l2.84277-4.92334
			c0.08984-0.15527,0.23633-0.15527,0.32617,0L206.83008,34.64648z M200.5791,34.40771
			c-0.08984,0.15576-0.20801,0.14307-0.26172-0.02783l-1.18652-3.73535c-0.05371-0.17139,0.04492-0.34277,0.21973-0.38135
			l3.8291-0.84033c0.1748-0.03809,0.24512,0.05762,0.15527,0.21289L200.5791,34.40771z M200.0791,34.70605
			c0.05371,0.1709-0.02832,0.38428-0.18457,0.47363l-0.78906,0.45605c-0.15625,0.08984-0.2832,0.01611-0.2832-0.16309v-4.39502
			c0-0.17969,0.04492-0.18652,0.09863-0.01562L200.0791,34.70605z M200.05762,35.4624
			c0.15625-0.08984,0.38184-0.05518,0.50293,0.07764l2.57715,2.82422c0.12109,0.13232,0.0918,0.16748-0.0625,0.07812
			l-3.80664-2.19775c-0.15527-0.08984-0.15527-0.23682,0-0.32617L200.05762,35.4624z M200.96191,35.49609
			c-0.12109-0.13232-0.07324-0.24072,0.10645-0.24072h5.51074c0.17969,0,0.22754,0.1084,0.10645,0.24072l-2.6416,2.89551
			c-0.12109,0.13232-0.31934,0.13232-0.44043,0L200.96191,35.49609z M207.08691,35.54004
			c0.12109-0.13232,0.34766-0.16748,0.50293-0.07764l0.79004,0.45605c0.15527,0.08936,0.15527,0.23633,0,0.32617l-3.80664,2.19727
			c-0.15527,0.08984-0.18359,0.05469-0.0625-0.07812L207.08691,35.54004z M207.75293,35.17969
			c-0.15527-0.08936-0.23828-0.30273-0.18359-0.47363l1.15723-3.64355c0.05469-0.1709,0.09863-0.16455,0.09863,0.01514v4.39502
			c0,0.17969-0.12695,0.25293-0.2832,0.16309L207.75293,35.17969z M208.07617,29.77979
			c0.15527,0.08984,0.13867,0.13184-0.03711,0.09326l-3.7334-0.81982c-0.1748-0.03857-0.31836-0.2168-0.31836-0.396v-0.91211
			c-0.00098-0.1792,0.12695-0.25293,0.28223-0.16309L208.07617,29.77979z M203.37793,27.58203
			c0.15527-0.08984,0.28223-0.01611,0.2832,0.16309v0.91211c0,0.17969-0.14355,0.35791-0.31836,0.396l-3.73438,0.81982
			c-0.17578,0.03857-0.19238-0.00342-0.03711-0.09326L203.37793,27.58203z"/>
	</g>
</g>
<g id="Remote">
	<path fill="#666666" d="M272.41016,113.6416c0,0-2.31055,0.21094-3.05664,1.91504c0.72266,0.72266,3.05664,3.59277,3.05664,3.59277
		s0.4209,0.72363,0.1875,1.42383c-0.23438,0.7002-0.7002,1.84277-0.7002,1.84277s-0.11719,0.39648-0.74805,0.51367
		c-0.62988,0.11621-0.90918,0.25684-1.00293,0.4668c-0.09277,0.20996,0.16406,1.35352,1.51758,1.2373
		c1.35352-0.11719,1.79688-0.63086,2.23926-1.4707c0.44336-0.84082,1.2373-1.68066,1.65723-2.03027s0.74707-1.13574,0-1.99121
		c-0.74707-0.85449-1.12012-0.97168-1.40039-1.62598C273.87988,116.8623,272.41016,113.6416,272.41016,113.6416z"/>
	<g>
		<polygon fill="#666666" points="260.06152,119.14258 261.9248,119.14258 260.99316,116.98047 		"/>
		<path fill="#666666" d="M260.99316,113.69434l-5,1.82324l0.77148,6.66602l4.22852,2.40723l4.22852-2.40723l0.77148-6.66602
			L260.99316,113.69434z M262.99316,121.62109l-0.70117-1.625h-2.59766l-0.70117,1.625h-1.20898l3.20898-6.95703l3.20898,6.95703
			H262.99316z"/>
	</g>
	<rect x="256" y="84.23633" fill="none" width="72.25" height="27.94238"/>
	<text transform="matrix(1 0 0 1 256 88.61621)"><tspan x="0" y="0" fill="#666666" font-family="'Raleway-Medium'" font-size="6">We</tspan><tspan x="9.83398" y="0" fill="#666666" font-family="'Raleway-Medium'" font-size="6">b</tspan><tspan x="13.46387" y="0" fill="#666666" font-family="'Raleway-Medium'" font-size="6">App h</tspan><tspan x="29.99316" y="0" fill="#666666" font-family="'Raleway-Medium'" font-size="6">os</tspan><tspan x="36.51465" y="0" fill="#666666" font-family="'Raleway-Medium'" font-size="6">ted </tspan><tspan x="47.43457" y="0" fill="#666666" font-family="'Raleway-Medium'" font-size="6">b</tspan><tspan x="51.05859" y="0" fill="#666666" font-family="'Raleway-Medium'" font-size="6">y</tspan><tspan x="54.16016" y="0" fill="#666666" font-family="'Raleway-Medium'" font-size="6"> the </tspan><tspan x="0" y="7.2002" fill="#666666" font-family="'Raleway-Medium'" font-size="6">serve</tspan><tspan x="15.42578" y="7.2002" fill="#666666" font-family="'Raleway-Medium'" font-size="6">r</tspan><tspan x="17.47168" y="7.2002" fill="#666666" font-family="'Raleway-Medium'" font-size="6"> </tspan><tspan x="0" y="14.40039" fill="#666666" font-family="'Raleway-Medium'" font-size="6">B</tspan><tspan x="4.02051" y="14.40039" fill="#666666" font-family="'Raleway-Medium'" font-size="6">ui</tspan><tspan x="8.99512" y="14.40039" fill="#666666" font-family="'Raleway-Medium'" font-size="6">l</tspan><tspan x="10.62695" y="14.40039" fill="#666666" font-family="'Raleway-Medium'" font-size="6">t</tspan><tspan x="12.70898" y="14.40039" fill="#666666" font-family="'Raleway-Medium'" font-size="6"> </tspan><tspan x="14.04688" y="14.40039" fill="#666666" font-family="'Raleway-Medium'" font-size="6">with</tspan><tspan x="25.94531" y="14.40039" fill="#666666" font-family="'Raleway-Medium'" font-size="6"> </tspan><tspan x="27.26465" y="14.40039" fill="#666666" font-family="'Raleway-Medium'" font-size="6">Angula</tspan><tspan x="47.21387" y="14.40039" fill="#666666" font-family="'Raleway-Medium'" font-size="6">r</tspan><tspan x="48.91211" y="14.40039" fill="#666666" font-family="'Raleway-Medium'" font-size="6">JS and </tspan><tspan x="0" y="21.59961" fill="#666666" font-family="'Raleway-Medium'" font-size="6">SockJS</tspan></text>
	<text transform="matrix(1 0 0 1 256 80.6123)"><tspan x="0" y="0" font-family="'Raleway-Bold'" font-size="8">Rem</tspan><tspan x="17.62402" y="0" font-family="'Raleway-Bold'" font-size="8">o</tspan><tspan x="22.39941" y="0" font-family="'Raleway-Bold'" font-size="8">te</tspan></text>
</g>
<g id="Server">
	<g>
		<path fill="#666666" d="M136.8916,55.34766v0.25244h-6.02441v-9h5.97363v0.25244h-5.72168v3.93311h5.38184v0.25195h-5.38184
			v4.31006H136.8916z"/>
	</g>
	<path fill="#666666" d="M122.48535,45.59961c0,0-2.31055,0.21094-3.05664,1.91504c0.72266,0.72266,3.05664,3.59277,3.05664,3.59277
		s0.4209,0.72363,0.1875,1.42383c-0.23438,0.7002-0.7002,1.84277-0.7002,1.84277s-0.11719,0.39648-0.74805,0.51367
		c-0.62988,0.11621-0.90918,0.25684-1.00293,0.4668c-0.09277,0.20996,0.16406,1.35352,1.51758,1.2373
		c1.35352-0.11719,1.79688-0.63086,2.23926-1.4707c0.44336-0.84082,1.2373-1.68066,1.65723-2.03027s0.74707-1.13574,0-1.99121
		c-0.74707-0.85449-1.12012-0.97168-1.40039-1.62598C123.95508,48.82031,122.48535,45.59961,122.48535,45.59961z"/>
	<g>
		
			<path fill="none" stroke="#666666" stroke-width="0.75" stroke-linecap="round" stroke-linejoin="round" stroke-miterlimit="10" d="
			M108.7168,55.73535l1.49805,0.86475l4.7627-2.75v-5.50049l-4.7627-2.74951l-4.76367,2.74951v5.50049l1.13867,0.65674
			c1.75195,1.03076,1.875-0.24805,1.875-0.58789v-4.95996"/>
		
			<path fill="none" stroke="#666666" stroke-width="0.75" stroke-linecap="round" stroke-linejoin="round" stroke-miterlimit="10" d="
			M113.1123,50.29053c0-1.09668-1.22754-1.22705-1.6709-1.22705s-1.59277,0.07812-1.59277,1.09668
			c0,1.43555,3.36816,0.13037,3.36816,2.03613c0,0.86133-1.25391,0.93994-1.80176,0.93994s-1.74902-0.15674-1.74902-1.35742"/>
	</g>
	<rect x="64.97656" y="16.52539" fill="none" width="72.25" height="27.94238"/>
	<text transform="matrix(1 0 0 1 82.83691 20.90479)"><tspan x="0" y="0" fill="#666666" font-family="'Raleway-Medium'" font-size="6">Node serve</tspan><tspan x="32.47168" y="0" fill="#666666" font-family="'Raleway-Medium'" font-size="6">r</tspan><tspan x="34.51758" y="0" fill="#666666" font-family="'Raleway-Medium'" font-size="6"> linking </tspan><tspan x="-12.37109" y="7.2002" fill="#666666" font-family="'Raleway-Medium'" font-size="6">We</tspan><tspan x="-2.53711" y="7.2002" fill="#666666" font-family="'Raleway-Medium'" font-size="6">b</tspan><tspan x="1.09277" y="7.2002" fill="#666666" font-family="'Raleway-Medium'" font-size="6">Apps and Rem</tspan><tspan x="42.26367" y="7.2002" fill="#666666" font-family="'Raleway-Medium'" font-size="6">o</tspan><tspan x="45.80371" y="7.2002" fill="#666666" font-family="'Raleway-Medium'" font-size="6">tes</tspan><tspan x="10.11621" y="14.40039" fill="#666666" font-family="'Raleway-Medium'" font-size="6">B</tspan><tspan x="14.13672" y="14.40039" fill="#666666" font-family="'Raleway-Medium'" font-size="6">ui</tspan><tspan x="19.11133" y="14.40039" fill="#666666" font-family="'Raleway-Medium'" font-size="6">l</tspan><tspan x="20.74316" y="14.40039" fill="#666666" font-family="'Raleway-Medium'" font-size="6">t</tspan><tspan x="22.8252" y="14.40039" fill="#666666" font-family="'Raleway-Medium'" font-size="6"> </tspan><tspan x="24.16309" y="14.40039" fill="#666666" font-family="'Raleway-Medium'" font-size="6">with Node, </tspan><tspan x="-8.36328" y="21.59961" fill="#666666" font-family="'Raleway-Medium'" font-size="6">ExpressJS and SockJS</tspan></text>
	<text transform="matrix(1 0 0 1 112.33203 13.73145)"><tspan x="0" y="0" font-family="'Raleway-Bold'" font-size="8">Serve</tspan><tspan x="21.95996" y="0" font-family="'Raleway-Bold'" font-size="8">r</tspan></text>
</g>
<g id="WebApp">
	<path fill="#666666" d="M72.38086,113.06152c0,0-2.31055,0.21094-3.05664,1.91504c0.72266,0.72266,3.05664,3.59277,3.05664,3.59277
		s0.4209,0.72363,0.1875,1.42383c-0.23438,0.7002-0.7002,1.84277-0.7002,1.84277s-0.11719,0.39648-0.74805,0.51367
		c-0.62988,0.11621-0.90918,0.25684-1.00293,0.4668c-0.09277,0.20996,0.16406,1.35352,1.51758,1.2373
		c1.35352-0.11719,1.79688-0.63086,2.23926-1.4707c0.44336-0.84082,1.2373-1.68066,1.65723-2.03027s0.74707-1.13574,0-1.99121
		c-0.74707-0.85449-1.12012-0.97168-1.40039-1.62598C73.85059,116.28223,72.38086,113.06152,72.38086,113.06152z"/>
	<g>
		
			<path fill="none" stroke="#666666" stroke-width="0.75" stroke-linecap="round" stroke-linejoin="round" stroke-miterlimit="10" d="
			M58.6123,123.19727l1.49805,0.86523l4.7627-2.75v-5.50098l-4.7627-2.74902l-4.76367,2.74902v5.50098l1.13867,0.65625
			c1.75195,1.03125,1.875-0.24805,1.875-0.58789v-4.95996"/>
		
			<path fill="none" stroke="#666666" stroke-width="0.75" stroke-linecap="round" stroke-linejoin="round" stroke-miterlimit="10" d="
			M63.00781,117.75195c0-1.0957-1.22754-1.22656-1.6709-1.22656s-1.59277,0.07812-1.59277,1.09668
			c0,1.43555,3.36816,0.12988,3.36816,2.03613c0,0.86133-1.25391,0.93945-1.80176,0.93945s-1.74902-0.15625-1.74902-1.35742"/>
	</g>
	<rect x="2.47656" y="83.9873" fill="none" width="73.5" height="27.94238"/>
	<text transform="matrix(1 0 0 1 2.7832 88.36719)"><tspan x="0" y="0" fill="#666666" font-family="'Raleway-Medium'" font-size="6">J</tspan><tspan x="2.87402" y="0" fill="#666666" font-family="'Raleway-Medium'" font-size="6">a</tspan><tspan x="6.10156" y="0" fill="#666666" font-family="'Raleway-Medium'" font-size="6">v</tspan><tspan x="9.22754" y="0" fill="#666666" font-family="'Raleway-Medium'" font-size="6">a</tspan><tspan x="12.55176" y="0" fill="#666666" font-family="'Raleway-Medium'" font-size="6">Script</tspan><tspan x="28.88379" y="0" fill="#666666" font-family="'Raleway-Medium'" font-size="6"> </tspan><tspan x="30.20312" y="0" fill="#666666" font-family="'Raleway-Medium'" font-size="6">API </tspan><tspan x="41.0625" y="0" fill="#666666" font-family="'Raleway-Medium'" font-size="6">t</tspan><tspan x="43.08496" y="0" fill="#666666" font-family="'Raleway-Medium'" font-size="6">o use Liwe </tspan><tspan x="13.18164" y="7.2002" fill="#666666" font-family="'Raleway-Medium'" font-size="6">and manage rem</tspan><tspan x="61.06445" y="7.2002" fill="#666666" font-family="'Raleway-Medium'" font-size="6">o</tspan><tspan x="64.60449" y="7.2002" fill="#666666" font-family="'Raleway-Medium'" font-size="6">tes</tspan><tspan x="4.87793" y="14.40039" fill="#666666" font-family="'Raleway-Medium'" font-size="6">B</tspan><tspan x="8.89844" y="14.40039" fill="#666666" font-family="'Raleway-Medium'" font-size="6">ui</tspan><tspan x="13.87305" y="14.40039" fill="#666666" font-family="'Raleway-Medium'" font-size="6">l</tspan><tspan x="15.50488" y="14.40039" fill="#666666" font-family="'Raleway-Medium'" font-size="6">t</tspan><tspan x="17.58691" y="14.40039" fill="#666666" font-family="'Raleway-Medium'" font-size="6"> </tspan><tspan x="18.9248" y="14.40039" fill="#666666" font-family="'Raleway-Medium'" font-size="6">with</tspan><tspan x="30.82324" y="14.40039" fill="#666666" font-family="'Raleway-Medium'" font-size="6"> </tspan><tspan x="32.16113" y="14.40039" fill="#666666" font-family="'Raleway-Medium'" font-size="6">J</tspan><tspan x="35.03418" y="14.40039" fill="#666666" font-family="'Raleway-Medium'" font-size="6">a</tspan><tspan x="38.26172" y="14.40039" fill="#666666" font-family="'Raleway-Medium'" font-size="6">v</tspan><tspan x="41.38867" y="14.40039" fill="#666666" font-family="'Raleway-Medium'" font-size="6">a</tspan><tspan x="44.71191" y="14.40039" fill="#666666" font-family="'Raleway-Medium'" font-size="6">Script and </tspan><tspan x="52.77539" y="21.59961" fill="#666666" font-family="'Raleway-Medium'" font-size="6">SockJS</tspan></text>
	<text transform="matrix(1 0 0 1 42.30518 81.19336)"><tspan x="0" y="0" font-family="'Raleway-Bold'" font-size="8">We</tspan><tspan x="13.22363" y="0" font-family="'Raleway-Bold'" font-size="8">b</tspan><tspan x="18.16016" y="0" font-family="'Raleway-Bold'" font-size="8">App</tspan></text>
</g>
</svg>
