<svg version="1.1" xmlns="http://www.w3.org/2000/svg" xmlns:xlink="http://www.w3.org/1999/xlink" x="0px" y="0px"   viewBox="0 0 600 600" enable-background="new 0 0 600 600" xml:space="preserve">
  <g fill="none" stroke="#f9f9f9" stroke-linecap="round" stroke-linejoin="round" stroke-miterlimit="10" >
  <g stroke-width="4">  
    <path d="M411.001,326.722c22.963,4.006,47.646,11.459,55.86,28.771c11.163,23.527,24.662,202.053,35.998,223.898 c10.708,20.629,29.044,42.672,46.13,58.57c11.836,11.013,24.84,22.222,34.615,35.435"/>
    <path d="M394.273,457.44c-6.766-48.99-50.266-81.586-67.506-104.027c-18.573-24.177-21.505-58.282-29.246-85.988 c-4.226-15.122-6.854-28.161-19.729-38.589c-11.565-9.366-24.187-15.604-39.048-9.845c-31.038,12.029-20.699,55.492-15.168,80.497 c3.111,14.061,5.555,32.307,12.949,44.598c8.348,13.877,17.543,21.973,20.941,38.391c6.619,31.984,5.055,66.773,5.055,100.438 c0,32.129,0.479,63.09,13.195,92.003c10.825,24.609,30.206,44.581,39.805,69.615"/>  
    <path d="M187.337,318.286c-3.26,0.979-6.529,1.972-9.815,3.01c-11.478,3.631-28.571,8.922-34.624,21.213 c-6.136,12.46-3.985,35.473,8.485,42.646c8.229,4.735,12.737,2.552,21.137-0.03c5.017-1.541,9.92-2.391,14.816-3.963"/>
    <path d="M159.021,387.942c-12.587,3.066-21.165,19.389-14.5,31.774"/>
    <path d="M145.021,419.717c-0.287,7.384-5.506,13.237-9.375,19.296c-4.383,6.867-4.102,14.113-1.639,21.652 c2.109,6.461,6.202,13.363,12.625,14.881c6.891,1.629,14.293-1.435,19.986-5.453c5.402-3.814,9.807-10.7,13.278-16.199 c2.552-4.043,7.437-16.822,7.437-22.003"/>
    <path d="M189.021,492.751c-2.425,8.279-0.84,14.898-6.611,22.012c-4.994,6.158-12.369,9.841-19.277,12.117 c-7.261,2.392-12.351-0.251-16.987-6.989c-3.726-5.417-5.63-11.971-5.624-18.509c0.004-4.436-0.037-5.61-1.5-9.326 c-1.407-3.572-2.26-16.12,0.85-20.706"/>
    <path d="M175.04,521.52c0.228,7.135-1.263,12.103,3.105,18.245c4.089,5.749,10.886,6.706,17.376,5.84 c11.75-1.57,21.756-11.486,24.487-23.13c1.542,1.157,2.414,1.438,4.437,1.44c-1.146,13.197,20.37,22.341,27.188,31.404 c5.154,6.852,2.854,13.124,6,20.823c1.424,3.484,3.844,6.056,4.863,9.362c1.169,3.792,0.179,8.452,0.998,12.432 c1.283,6.234,6.805,10.411,8.027,16.032c1.646,7.567,0.798,14.481,3.861,21.758c2.696,6.404,5.972,12.244,7.652,19.15 c1.668,6.845,0.638,15.196,3.048,21.807c-0.226,0.91-0.543,0.125-1.062,0.481"/>
    <path d="M421.86,374.798c0,0-16.831,36.719-40.188,44.919"/>
    <line x1="315.627" y1="120.2" x2="282.707" y2="120.2"/>  
    <path d="M411,393.496V116.544 c0-18.182-14.74-32.921-32.922-32.921l-157.824,0c-18.18,0-32.92,14.74-32.92,32.922v365.793c0,18.18,14.74,32.92,32.92,32.92 h42.899"/>
  </g>
  <g stroke-width="2">  
    <path d="M132.234,446.953c0-2.62,5.823-30.842,9.967-36.579"/>
    <path d="M187.334,478.082c-0.179-3.005-1.812-8.106-2.562-10.889c-0.665-2.463-3.529-7.843-6-8.548"/>  
    <path d="M224.404,525.132c2.001-2.027,3.015-6.596,3.87-9.874"/>  
    <path d="M218.521,524.483c0.656-2.914,1.198-6.199,1.097-9.08"/>  
    <path d="M142.309,512.222c0.262-1.321,1.043-5.125,1.9-7.213c0.939-2.291,2.148-4.434,3.57-6.476c3.12-4.485,8.506-7.03,11.705-11.209 c-2.064-3.843,0.915-8.132-3.407-11.122c-3.149-2.18-6.44-1.234-9.243,1.156c-5.955,5.079-5.812,14.154-5.812,21.693"/>  
    <path d="M277.021,228.315c1.352,10.072,2.389,19.894,1.519,30.206c-2.621-2.194-9.616-0.001-12.513,0.623 c-4.143,0.891-8.092,1.087-12.006,2.583c-3.36,1.284-6.58,3.749-10,4.403c-3.752,0.718-6.561-2.467-8.506-5.697 c-2.195-3.647-3.908-7.762-4.981-11.915c-0.982-3.802-2.763-7.605-2.775-11.655c-0.022-7.096,9.733-18.014,15.707-19.483 c0.474-0.116,1.07-0.293,1.556-0.46"/>  
    <path d="M385.896,417.898c0,0,17.981,0,35.964-19.161"/>  
    <path d="M255.521,563.464c0.958-2.671,0.928-6.961,1.237-9.856c0.366-3.436-0.333-8.584,1.263-11.641"/>  
    <path d="M263.521,587.032c1.601-4.955,0.842-10.227,3-15.28"/>  
    <path d="M272.521,615.782c-1.292-1.823-0.047-5.913,0.237-8.029c0.413-3.078,1.162-6.046,2.013-9.065"/>
    <polyline points="394.273,412.347 394.273,155.864 204.059,155.864 204.059,438.44 262.603,438.44"/>
  </g>
  </g>
</svg>