<svg version="1.1" xmlns="http://www.w3.org/2000/svg" xmlns:xlink="http://www.w3.org/1999/xlink" x="0px" y="0px" viewBox="0 0 300 100" enable-background="new 0 0 300 100" xml:space="preserve">
  <path fill="none" stroke-width="4" stroke-miterlimit="10" d="M75.564,47.836 c3.419,0,4.087,0.71,4.087,0.71c1.775,1.887,3.903,3.431,4.727,3.431c0.825,0,1.5-2.119,1.5-4.709V25.556h-21.71 c-2.591,0-4.711-0.674-4.711-1.498c0-0.825,1.544-2.953,3.431-4.728c0,0,0.71-0.669,0.71-4.087c0-4.248-3.444-7.692-7.692-7.692 c-4.248,0-7.691,3.444-7.691,7.692c0,3.418,0.71,4.087,0.71,4.087c1.888,1.774,3.432,3.902,3.432,4.728 c0,0.824-2.12,1.498-4.711,1.498h-21.71l-0.001,21.712c0,2.59-0.622,4.709-1.384,4.709s-2.837-1.543-4.612-3.431 c0,0-0.667-0.71-4.087-0.71c-4.248,0-7.691,3.443-7.691,7.691c0,4.25,3.443,7.692,7.691,7.692c3.42,0,4.087-0.712,4.087-0.712 c1.775-1.885,3.851-3.431,4.612-3.431s1.384,2.12,1.384,4.711V85.5h21.711c2.591,0,4.711-0.674,4.711-1.499 c0-0.823-1.544-2.953-3.432-4.726c0,0-0.71-0.669-0.71-4.089c0-4.248,3.444-7.689,7.691-7.689c4.249,0,7.692,3.441,7.692,7.689 c0,3.42-0.71,4.089-0.71,4.089c-1.887,1.772-3.431,3.902-3.431,4.726c0,0.825,2.12,1.499,4.711,1.499h21.71V63.788 c0-2.591-0.674-4.711-1.5-4.711c-0.824,0-2.951,1.546-4.727,3.431c0,0-0.667,0.712-4.087,0.712c-4.248,0-7.692-3.442-7.692-7.692 C67.872,51.279,71.316,47.836,75.564,47.836z"/>
  <g>
    <polygon fill="none" stroke-width="4" stroke-miterlimit="10" points="110.373,16.429 170.589,16.429
      186.373,31.426 186.373,83.572 126.157,83.572 110.373,68.576   "/>
    <polyline fill="none" stroke-width="2" stroke-miterlimit="10" points="110.373,16.429 126.157,31.425
      186.373,31.425  "/>
    <polyline fill="none" stroke-width="2" stroke-miterlimit="10" points="110.373,33.811 126.157,48.807
      186.373,48.807  "/>
    <polyline fill="none" stroke-width="2" stroke-miterlimit="10" points="110.373,51.193 126.157,66.189
      186.373,66.189  "/>
    <line fill="none" stroke-width="2" stroke-miterlimit="10" x1="126.157" y1="31.425" x2="126.157" y2="83.572"/>
    <line fill="none" stroke-width="2" stroke-miterlimit="10" x1="169.5" y1="44.525" x2="182.851" y2="44.525"/>
    <line fill="none" stroke-width="2" stroke-miterlimit="10" x1="169.5" y1="61.908" x2="182.851" y2="61.908"/>
    <line fill="none" stroke-width="2" stroke-miterlimit="10" x1="169.5" y1="79.29" x2="182.851" y2="79.29"/>
  </g>
  <g>
    <path fill="none" stroke-width="2" stroke-miterlimit="10" d="M281.779,69.874
      c-0.557-3.468-2.818-6.379-9.514-9.096c-2.326-1.068-4.92-1.835-5.693-3.598c-0.275-1.025-0.311-1.604-0.137-2.225
      c0.498-2.016,2.904-2.645,4.811-2.066c1.229,0.412,2.391,1.358,3.092,2.868c3.279-2.124,3.273-2.109,5.562-3.569
      c-0.838-1.3-1.285-1.899-1.834-2.456c-1.973-2.204-4.66-3.338-8.959-3.251c-0.744,0.094-1.494,0.195-2.238,0.289
      c-2.146,0.542-4.191,1.669-5.391,3.179c-3.598,4.082-2.572,11.227,1.807,14.167c4.312,3.236,10.648,3.974,11.457,7.001
      c0.789,3.706-2.723,4.905-6.213,4.479c-2.57-0.534-4.002-1.842-5.547-4.219c-2.848,1.647-2.848,1.647-5.773,3.33
      c0.693,1.518,1.424,2.203,2.586,3.519c5.506,5.584,19.283,5.31,21.754-3.143C281.648,74.794,282.314,72.857,281.779,69.874z"/>
    <path fill="none" stroke-width="2" stroke-miterlimit="10" d="M253.316,46.93h-7.109
      c0,6.141-0.029,12.238-0.029,18.379c0,3.908,0.203,7.491-0.434,8.59c-1.041,2.16-3.734,1.893-4.963,1.474
      c-1.25-0.614-1.887-1.488-2.623-2.724c-0.201-0.354-0.354-0.629-0.404-0.65c-1.93,1.178-3.85,2.362-5.779,3.54
      c0.961,1.972,2.377,3.685,4.189,4.797c2.709,1.626,6.352,2.124,10.158,1.25c2.479-0.723,4.617-2.218,5.736-4.494
      c1.617-2.983,1.271-6.596,1.258-10.591C253.352,59.984,253.316,53.468,253.316,46.93z"/>
    <rect x="212" y="12" fill="none" stroke-width="4" width="76" height="76"/>
  </g>
  <line fill="none" stroke-width="4" stroke-miterlimit="10" x1="95" y1="5" x2="5" y2="95"/>
  <line fill="none" stroke-width="4" stroke-miterlimit="10" x1="195" y1="5" x2="105" y2="95"/>
</svg>