<svg version="1.1" xmlns="http://www.w3.org/2000/svg" xmlns:xlink="http://www.w3.org/1999/xlink" x="0px" y="0px" viewBox="0 0 300 100" enable-background="new 0 0 300 100" xml:space="preserve">
  <g>
    <path fill="none" stroke-width="4" stroke-linejoin="round" stroke-miterlimit="10" d="M86.213,77.857 c0,4.596-3.761,8.356-8.357,8.356H22.143c-4.596,0-8.356-3.761-8.356-8.356V22.143c0-4.596,3.76-8.356,8.356-8.356h55.713 c4.596,0,8.357,3.761,8.357,8.356V77.857z"/>
    <circle fill="none" stroke-width="2" stroke-linejoin="round" stroke-miterlimit="10" cx="50" cy="50" r="27.563"/>
    <polygon fill="none" stroke-width="2" stroke-miterlimit="10" points="59.863,52.79  59.863,30.335 40.341,30.335 40.341,52.79 31.672,52.79 50.102,71.221 68.532,52.79"/>
  </g>
  <g>
    <polygon fill="none" stroke-width="4" points="116.054,13.786  116.054,86.214 167.306,86.214 183.946,69.573 183.946,13.786"/>
    <polyline fill="none" stroke-width="2" stroke-miterlimit="10" points="167.306,86.214 167.306,69.573  183.946,69.573"/>
    <rect x="123.105" y="22.799" fill="none" stroke-width="2" width="10.2" height="10.2"/>
    <line fill="none" stroke-width="2" x1="138.317" y1="27.899" x2="176.056" y2="27.899"/>
    <rect x="123.105" y="38.569" fill="none" stroke-width="2" width="10.2" height="10.201"/>
    <line fill="none" stroke-width="2" x1="138.317" y1="43.671" x2="176.056" y2="43.671"/>
    <rect x="123.105" y="54.341" fill="none" stroke-width="2" width="10.2" height="10.2"/>
    <line fill="none" stroke-width="2" x1="138.317" y1="59.441" x2="176.056" y2="59.441"/>
  </g>
  <g>
    <polygon fill="none" stroke-width="2" stroke-miterlimit="10" points="232.742,68.783 231.536,55.266  239.985,55.266 240.612,62.279 249.988,64.811 250,64.806 250,64.807 259.385,62.274 260.361,51.356 231.187,51.356  228.917,25.901 271.082,25.901 270.33,34.319 238.117,34.319 238.886,42.939 269.562,42.939 267.252,68.783 250,73.565  249.986,73.569"/>
    <polygon fill="none" stroke-width="4" stroke-miterlimit="10" points="216.397,11.871 222.516,80.503  249.984,88.129 277.475,80.507 283.604,11.871"/>
  </g>
  <line fill="none" stroke-width="4" stroke-miterlimit="10" x1="95" y1="5" x2="5" y2="95"/>
  <line fill="none" stroke-width="4" stroke-miterlimit="10" x1="195" y1="5" x2="105" y2="95"/>
</svg>