<svg version="1.1" xmlns="http://www.w3.org/2000/svg" xmlns:xlink="http://www.w3.org/1999/xlink" x="0px" y="0px" viewBox="0 0 100 100" enable-background="new 0 0 100 100" xml:space="preserve" width="100" height="100">
  <g fill="none">
    <path stroke-width="4" stroke-linecap="round" stroke-miterlimit="10" d="M36.09,83.849 l-5.997-6.437c0,0-3.12-5.412,0.955-9.662c4.58-4.343,7.32-5.745,7.32-5.745"/>
    <path stroke-width="4" stroke-linecap="round" stroke-linejoin="round" stroke-miterlimit="10" d=" M38.487,72.737V34.46c0,0,0.356-5.336,5.128-5.336c4.772,0,4.906,5.336,4.906,5.336v22.708c0,0,0-3.954,5.22-3.954 c4.813,0,4.813,4.716,4.813,4.716s0-3.812,5.366-3.812c4.66,0,4.649,4.961,4.649,4.961s0.327-3.698,5.441-3.741 c4.625-0.039,4.611,5.461,4.611,5.461v16.651c0,7.496-5.938,10.754-5.938,10.754"/>
    <path stroke-width="4" stroke-linecap="round" stroke-miterlimit="10" d="M33.658,42.973 c-2.27-2.44-3.658-5.711-3.658-9.306C30,26.119,36.119,20,43.667,20s13.667,6.119,13.667,13.667 c0,3.764-1.522,7.173-3.985,9.646"/>
    <path stroke-width="4" stroke-linecap="round" stroke-miterlimit="10" d="M33.659,49.426 C28.454,46.114,25,40.93,25,33.667C25,23.358,33.358,15,43.667,15s18.667,8.357,18.667,18.666 c0,5.907-2.743,11.172-7.027,14.592"/>
  </g>
</svg>