<svg version="1.1" xmlns="http://www.w3.org/2000/svg" xmlns:xlink="http://www.w3.org/1999/xlink" x="0px" y="0px" viewBox="0 0 600 600" enable-background="new 0 0 600 600" xml:space="preserve">
  <g fill="none" stroke="#181F21" stroke-miterlimit="10">
    <path stroke-width="5" d="M129.45215-84.71924 c0,0-11.90967,98.17627-10.2085,130.50439c1.70068,32.32764,10.2085,98.68408,10.2085,98.68408s7.65527,31.47607,11.05859,40.83447 c3.40332,9.35645,26.79785,55.29541,26.79785,55.29541s8.50732,19.56738,34.0293,13.61328 c1.70068,39.98242,21.26807,39.13232,25.52148,39.13232s17.86523,0,20.41748-3.40186 c0,21.26709,15.31396,32.32568,26.37256,32.32568c0,0,31.47656,6.80762,33.17773-24.66943c0,0-2.53711,22.95947-2.53711,34.87061 s2.16309,65.93457,2.16309,93.43457c0,20.99707,4.19336,34.99414,27.80078,34.97363 c20.43457-0.01758,29.34375-11.83398,29.34375-35.05762c0.84961-45.93848,4.48145-54.63477,5.33105-86.11035 c0.85156-31.47754,3.82812-69.76074,3.82812-87.62598c1.70215-18.71533,5.95605-26.79541,5.95605-39.98242 s-3.40234-71.88672,0-81.24561c1.70215,23.82178,17.86523,44.23926,23.82031,48.49121 c-1.70117,10.2085,17.01562,42.53711,39.13379,59.55225c22.11816,17.0127,34.02832,2.55225,36.58008-7.65674 c-13.61035-15.31299-17.01367-56.99756-16.16309-61.25195s-2.55273-15.31543-8.50781-22.11963 c-5.95508-6.80664-28.9248-47.64111-28.07324-66.35596c0.85059-18.71533-13.61133-32.32764-22.11816-39.98438 c-8.50781-7.65674-78.26758-87.62354-79.54395-116.54736"/>
    <path stroke-width="5" d="M378.71289,130.85596 c0,0,8.08203-35.73047,5.10449-56.99756"/>
    <path stroke-width="2" d="M465.58594,200.59424 c0,0-9.88184-2.10596-15.41309,9.80518c1.70117,9.35889,11.06055,24.24561,11.06055,24.24561s8.08105,7.23145,17.01367-3.40234"/>
    <path stroke-width="2" d="M316.95801,452.96387l2.66113-26.84668 c0,0,22.60645-3.84961,30.01758-0.51367l1.85742,27.29395C351.49414,452.89746,334.00488,463.34082,316.95801,452.96387z"/>
    <path stroke-width="5" d="M306.82715,297.59912 c0,0,2.55371-49.34082,0-72.73682"/>
    <path stroke-width="5" d="M247.27686,289.94287 c0,0,2.97803-51.04346-11.48486-74.43896"/>
    <path stroke-width="5" d="M201.33789,254.2124 c0-24.67188-33.60449-60.82812-32.32861-78.26709"/>
    <path stroke-width="2" d="M327.66895,328.64844 c0,0,15.25098,2.92285,28.49902,0"/>
    <path stroke-width="2" d="M358.7207,322.26855 c0,0-9.3584-3.82812-16.80176-2.97754c-7.44434,0.85156-18.50391,2.42871-21.48145,1.42676"/>
    <path stroke-width="2" d="M425.60254,454.07227h15.94629 c1.46777,0,2.6582,1.19043,2.6582,2.6582v19.60059c0,1.46777-1.19043,2.65723-2.6582,2.65723h-58.86914"/>
    <polyline stroke-width="2" points="407.11035,494.26953 382.67969,478.98828  407.11035,463.70703 "/>
    <path stroke-width="2" d="M463.70801,511.41016c0,5.52246-4.47754,10-10,10 H208.9209c-5.52295,0-10-4.47754-10-10"/>
    <path stroke-width="5" d="M364.04395,410.02832h90.66406 c5.52246,0,10,4.47754,10,10v99.38184c0,5.52246-4.47754,10-10,10H207.9209c-5.52295,0-10-4.47754-10-10v-99.38184 c0-5.52246,4.47705-10,10-10h98.36816"/>
  </g>
</svg>