<?xml version="1.0" encoding="utf-8"?>
<!-- Generator: Adobe Illustrator 15.0.2, SVG Export Plug-In . SVG Version: 6.00 Build 0)  -->
<!DOCTYPE svg PUBLIC "-//W3C//DTD SVG 1.1//EN" "http://www.w3.org/Graphics/SVG/1.1/DTD/svg11.dtd">
<svg version="1.1" id="Prism_1_" xmlns="http://www.w3.org/2000/svg" xmlns:xlink="http://www.w3.org/1999/xlink" x="0px" y="0px"
	 width="80px" height="80px" viewBox="0 0 80 80" enable-background="new 0 0 80 80" xml:space="preserve">
<path id="Smooth" fill="#BCBEC0" d="M41.731,0.981c-0.953-0.55-2.512-0.55-3.464,0L7.074,18.99c-0.953,0.55-1.732,1.9-1.732,3v36.02
	c0,1.1,0.779,2.45,1.732,3l31.193,18.01c0.952,0.55,2.511,0.55,3.464,0l31.194-18.01c0.953-0.55,1.732-1.9,1.732-3V21.99
	c0-1.1-0.779-2.45-1.732-3L41.731,0.981z M43,18.765c-0.55-0.953-0.121-1.539,0.953-1.303l23.467,5.151
	c1.074,0.236,1.681,1.287,1.348,2.335l-7.271,22.898c-0.333,1.049-1.056,1.127-1.605,0.174L43,18.765z M58.426,49.482
	c0.55,0.953,0.1,1.732-1,1.732h-34.85c-1.1,0-1.55-0.779-1-1.732l17.425-30.18c0.55-0.953,1.45-0.953,2.001,0L58.426,49.482z
	 M20.11,48.02c-0.55,0.953-1.272,0.875-1.605-0.174l-7.272-22.898c-0.333-1.048,0.273-2.099,1.349-2.335l23.468-5.151
	c1.074-0.236,1.503,0.351,0.953,1.303L20.11,48.02z M17.042,49.845c0.333,1.049-0.174,2.356-1.126,2.906l-4.842,2.794
	c-0.953,0.55-1.732,0.1-1.732-1V27.603c0-1.1,0.272-1.142,0.605-0.094L17.042,49.845z M16.916,54.482
	c0.952-0.55,2.338-0.335,3.08,0.478l15.796,17.312c0.741,0.812,0.568,1.027-0.384,0.478L12.074,59.277c-0.953-0.55-0.953-1.45,0-2
	L16.916,54.482z M22.458,54.692c-0.742-0.812-0.448-1.478,0.651-1.478h33.781c1.1,0,1.394,0.665,0.652,1.478L41.348,72.44
	c-0.742,0.812-1.955,0.812-2.696,0L22.458,54.692z M60.006,54.96c0.741-0.812,2.127-1.027,3.08-0.478l4.84,2.795
	c0.953,0.55,0.953,1.45,0,2L44.594,72.748c-0.953,0.55-1.126,0.335-0.385-0.478L60.006,54.96z M64.086,52.751
	c-0.953-0.55-1.46-1.857-1.127-2.906l7.094-22.334c0.333-1.048,0.605-1.006,0.605,0.094v26.941c0,1.1-0.779,1.55-1.732,1
	L64.086,52.751z M66.064,19.648c0.953,0.55,0.854,0.807-0.221,0.571l-22.889-5.024c-1.074-0.236-1.953-1.329-1.954-2.429L41,7.177
	c-0.001-1.1,0.779-1.55,1.731-1L66.064,19.648z M37.268,6.177c0.952-0.55,1.731-0.1,1.732,1l0.001,5.59
	c0,1.1-0.879,2.193-1.953,2.429L14.156,20.22c-1.075,0.236-1.175-0.021-0.222-0.571L37.268,6.177z"/>
</svg>
